<?xml version="1.0" encoding="UTF-8"?>
<svg id="Layer_2" data-name="Layer 2" xmlns="http://www.w3.org/2000/svg" version="1.1" viewBox="0 0 769.7 275.3">
  <defs>
    <style>
      .cls-1 {
        fill: #fff;
        stroke-width: 0px;
      }
    </style>
  </defs>
  <g id="Layer_8" data-name="Layer 8">
    <path class="cls-1" d="M0,50.7h1.8c16.5,0,33.1,0,49.6,0,1.2,0,1.9.4,2.7,1.4,9.6,13.5,18.5,27.4,27.3,41.4,9.9,15.6,19.6,31.2,29.7,46.6,10.8,16.4,22.4,32.1,34.2,47.7.2.3.5.5,1,1.1V51.9c1.3-.4,50.3-.5,53.1-.2v175.7c-5.2.1-10.4,0-15.8,0v3.6h-1.3v-14c-2.5-.4-4.9-.7-7.4-1.1,0-.2-.2-.5-.4-1-.8.6-1.5,1.2-2.2,1.8,0-.5-.1-.9-.3-1.6-.5.7-.8,1.2-1.2,1.7-.8,0-1.6,0-2.6.1-.4,9.8-.7,19.5-1.1,29.2-1.2.3-2.4.6-3.7.9,0-.5,0-1,0-1.5,0-3.2,0-6.3,0-9.5,0-.5,0-1.1-.2-1.6-.6-1.4-.8-2.9-.6-4.5.1-1.6,0-3.1-.7-4.6-.9-2.2-.7-4.5-.6-6.8.1-1.5.2-3,.4-4.5,0-.6,0-1.1-.6-1.5-1.2-1-1.6-2.3-1.6-3.8,0-1.5,0-2.9,0-4.5-2.9-.9-5.9-1-9.1-.9,0,1.1.1,2,.2,2.9.2,2.1,0,4.1-1.8,5.6-.4.4-.6,1.1-.6,1.8-.2,3.9-.4,7.7-.6,11.5,0,.6,0,1.3,0,2-1,.4-1.8.7-2.9,1.1v-5.9c-6.4,0-12.5,1-18.9,1.2v6.4c-1.3-.1-2.3-.2-3.4-.3-.8-.1-1.5-.3-2.2-.4-1-.2-1.9-.3-2.9.2-.3.1-.6.2-.9.3-3,.5-3,.5-4.8-2-14.4-20.4-28.9-40.7-43.3-61.1-4.7-6.7-9.3-13.4-13.9-20.1-.2-.4-.5-.7-.7-1-.1,0-.2,0-.2,0,0,0,0,0,0,.1,0,.2,0,.3,0,.5,0,33.2,0,66.4,0,99.6,0,.1,0,.2,0,.3,0,0,0,0-.1.2-.4,0-.8.1-1.4.2v17c-1.5.2-2.9.4-4.2.4s-1.6-.4-2-2.4c-.6,0-1.1.1-1.7.2-.9.1-1.8.1-2.5-.7-.2-.2-.6-.4-.8-.4-2.8-.1-5.6-.7-8.4-.3-.3,0-.7,0-1,.2-.8.3-1.3,1.1-2.3,1-.8-.1-1.6,0-2.5,0-1.1,1.7-2.5,3-4.9,2.8v-23.5H0c0-63.5,0-126.7,0-190.2Z"/>
  </g>
  <g id="Layer_7" data-name="Layer 7">
    <path class="cls-1" d="M456.6,246.4c-.5,0-1,.1-1.6.2v17c-1.5.3-2.8.6-4.2.5-1.4,0-1.6-.4-2-2.4-.7,0-1.4.1-2,.2-.8,0-1.5,0-2.1-.6-.2-.2-.5-.4-.8-.5-3-.2-5.9-.8-8.9-.2-.2,0-.4,0-.6.1-.8.3-1.3,1.1-2.3,1-.8-.1-1.6,0-2.5,0-1.1,1.7-2.4,3-4.8,2.8-.2-1.9,0-3.9,0-5.8,0-2,0-3.9,0-5.9v-11.8c-1.8-.1-3.5,0-5.2,0-1.7,0-3.5,0-5.2,0h-10.5V50.8c.5,0,.9-.1,1.4-.1,16.8,0,33.6,0,50.4,0,1,0,1.6.4,2.1,1.1,7,9.7,13.6,19.7,20,29.8,9.4,14.9,18.8,29.8,28.2,44.7,11.2,17.7,23.4,34.7,35.8,51.6,2.3,3.1,4.6,6.2,7,9.3.4.5.7.9,1.1,1.4.1,0,.2,0,.2,0,0,0,0,0,0-.1,0-.2,0-.3,0-.5,0-45.3,0-90.5,0-135.8,0,0,0-.1,0-.2s0,0,.2-.2h52.7c.3,1.2.5,171.5.2,175.7-1.7.2-3.4,0-5.1.1-1.8,0-3.6,0-5.4,0h-5.4v3.6h-1.3v-14.1c-2.6-.4-5-.7-7.4-1.1,0-.3-.2-.6-.4-1.1-.8.6-1.4,1.1-2.2,1.8-.1-.5-.2-.9-.4-1.6-.5.7-.8,1.2-1.2,1.8-.8,0-1.6,0-2.6.1-.2,4.9-.4,9.8-.6,14.6-.2,4.8-.3,9.7-.5,14.6-1.2.3-2.4.6-3.7.9,0-.5,0-1,0-1.5,0-2.5,0-4.9,0-7.3,0-1.6,0-3.2-.6-4.8-.4-.8-.3-1.9-.3-2.9,0-1.9,0-3.6-.8-5.4-.9-2.1-.6-4.5-.4-6.8,0-1.4.2-2.7.3-4.1,0-.8,0-1.3-.7-1.9-1-.8-1.4-2-1.4-3.3v-4.7c-2-.8-6.1-1.2-9-.8v2.2c0,1,0,2,0,2.9,0,1.1-.5,2.1-1.4,2.9-.7.6-1,1.3-1,2.1-.2,3.9-.4,7.7-.6,11.5,0,.6,0,1.3,0,2-1,.4-1.9.7-3,1.1v-5.9c-6.4,0-12.5,1-18.9,1.2v6.1c-1.2.5-2.2,0-3.3,0-.8,0-1.5-.3-2.2-.4-1-.2-2-.2-3,.2-.3.2-.7.2-1.1.3-2.8.4-2.8.4-4.5-2-12.5-17.7-25.2-35.4-37.7-53.1-6.6-9.3-13-18.8-19.5-28.1-.2-.4-.5-.7-.7-1-.1,0-.2,0-.2,0,0,0,0,0,0,.1,0,.1,0,.2,0,.3,0,33.3,0,66.6,0,99.9,0,0,0,0-.1.4Z"/>
  </g>
  <g id="Layer_6" data-name="Layer 6">
    <path class="cls-1" d="M427.5,0c-2,3.1-3.7,5.8-5.5,8.6-23.2,36-46.4,71.9-69.6,107.8-5.8,8.9-11.4,17.9-17.1,26.8-.5.7-.7,1.4-.8,2.3-.1,4.8-.4,9.6-.4,14.3,0,5.6.1,11.2.2,16.8,0,3.5.2,7,.2,10.4,0,4.1-.1,8.1-.3,12.2,0,2.5-.9,4.8-2.7,6.7-1,1-1.4,2.2-1.5,3.5,0,1-.1,2.1-.2,3.1,0,5.5,0,11.1,0,16.6v1.8c-1.5.7-3,1.3-4.7,2,0-1.4,0-2.7,0-4,.1-1.6-.5-2.8-1.6-3.9-.1-.2-.3-.3-.5-.4q-2.3-2-5.1-.8c-1.8.8-3.7,1.6-5.7,2.5v10.4c-2.4,0-4.6,0-7,0,.1-1.2.3-2.3.4-3.4.1-1.3-.3-2.3-1.2-3.4-1.7-2-3.7-2.7-6.1-2.5-.4-.5-.7-.9-1.1-1.5-.1.6-.2,1-.3,1.5h-9.1c0,.8-.1,1.6-.2,2.4-1,.5-2.1,1-3.2,1.5-1.4.7-2.6,1.6-2.9,3.4-.1.9-.7,1.8-1.1,2.9-.3-.2-.7-.4-.9-.6-2.8-2.8-4.2-6.3-4.7-10.1,0-.6,0-1.2-.6-1.7-.8.9-.4,2-.9,3-.4,1-.8,2-1.3,3-.5,1-1.2,1.8-1.8,2.7-.6.9-1.4,1.7-2.2,2.7-.1-.6-.2-.9-.2-1.2,0-.5,0-1,0-1.5,0-30.1,0-60.2,0-90.2,0-1.4-.4-2.5-1.1-3.6-11.3-16.2-21.6-33.1-31.7-50-12.3-20.6-24.5-41.2-36.9-61.7-5.6-9.2-11.8-18-17.7-27-.3-.4-.5-.8-.9-1.4.6,0,1,0,1.4,0,25.2,0,50.5,0,75.7,0,1.1,0,1.7.3,2.2,1.2,4.5,7.1,8.7,14.4,12.5,21.9,5.8,11.2,11.4,22.5,17.2,33.7,3.9,7.5,7.9,14.9,12.5,22,.3.5.7,1,1.1,1.6.4-.6.6-1.1.9-1.5,11.5-20.3,22.9-40.6,34.5-60.9,2.9-5,5.9-9.9,9-14.8,2.1-3.3,2.1-3.2,6-3.2h72.8c.6,0,1.3,0,2.2,0Z"/>
  </g>
  <g id="Layer_5" data-name="Layer 5">
    <path class="cls-1" d="M674.7,104.2v35h73.4v53.1h-73.2c-.4,1.5-.4,32.8,0,34.5h94.8v26.6c-13.4-1-26.7-.3-40.3-.3,0-1.8,0-3.6,0-5.3s0-3.5,0-5.2c-2.6-.4-4.8-1.6-7.3-1.9-1-.1-2.1-1-3.1-.9-1,0-1.9,1-2.9,1.4-1.5.5-3,.9-4.5,1.2-.3,0-.6.1-1.1.2v11.1h-6.7c-.4-1.1-.7-2.3-1.1-3.5-.3,0-.7,0-1.2-.1-.1.2-.2.3-.2.5-.1.9-.2,1.7-.3,2.6-.3,1.3-.7,1.6-2,1.6-.8,0-1.6,0-2.6,0v10.1c-.3-.1-.5-.1-.6-.2-.8-1.4-2-1.5-3.5-1.5-2.6,0-5.2,0-7.8,0s-4.6,1.5-5,4.4c0,.1,0,.2-.1.4-1.8,1-3.8.1-5.8,0-.4-4.4-.8-8.8-1.1-13.2h-9.7c0,.9,0,1.8-.2,2.8-.9-.1-1.6-.3-2.4-.4-1.9-.4-2.3,0-2.3,2.1h-6.4c-.4,1.2-.8,2.2-2.1,2.8-.3-1-.2-2-.1-2.9,0-1.2-.3-1.9-1.5-2.3-1.4-.5-2.8-1.1-4.4-1-.8,0-1.6,0-2.2.4-1.5.9-3.2,1-4.9.9-.3,0-.5.1-.8.2-.7,2.2-.6,4.5-.7,6.8-.1,3.1-.2,6.2-.4,9.3,0,.3-.1.5-.2.8-1.5.4-3.1.7-4.5,1.1-.3-1.5-.6-3-.9-4.6h-5.9c0-.7-.1-1.3-.1-1.9,0-4.2,0-8.4,0-12.6,0-.7,0-1.4-.2-2.1-.6-2.5-.7-5-.7-7.6,0-64.4,0-128.7,0-193v-2.5c2.2,0,4.4,0,6.5,0,2.1,0,4.2,0,6.4,0h25.8c2.2,0,4.3,0,6.5,0,2.1,0,4.2,0,6.3.2,2.1.3,4.3-.2,6.4-.2,2.1,0,4.2,0,6.4,0h83.9v53.2h-47.5c-15.8,0-31.6,0-47.6,0Z"/>
  </g>
</svg>